HIERARCHY
ROOT Pelvis
{
	OFFSET 0.000000 0.000000 0.000000
	CHANNELS 6 Xposition Yposition Zposition Xrotation Yrotation Zrotation
	JOINT LeftUpLeg_virtual
	{
		OFFSET 0.000000 0.000000 0.000000
		CHANNELS 3 Xrotation Yrotation Zrotation
		JOINT LeftUpLeg
		{
			OFFSET 18.735201 -5.666702 -4.541200
			CHANNELS 3 Xrotation Yrotation Zrotation
			JOINT LeftLeg
			{
				OFFSET -0.021200 -31.938179 0.493100
				CHANNELS 3 Xrotation Yrotation Zrotation
				JOINT LeftFoot
				{
					OFFSET 0.021200 -31.938179 -4.336299
					CHANNELS 3 Xrotation Yrotation Zrotation
					JOINT LeftToeBase
					{
						OFFSET 0.943001 -26.722000 15.023500
						CHANNELS 3 Xrotation Yrotation Zrotation
						End Site
						{
							OFFSET 0 0 0
						}
					}
				}
			}
		}
	}
	JOINT RightUpLeg_virtual
	{
		OFFSET 0.000000 0.000000 0.000000
		CHANNELS 3 Xrotation Yrotation Zrotation
		JOINT RightUpLeg
		{
			OFFSET -18.735201 -5.666702 -4.541200
			CHANNELS 3 Xrotation Yrotation Zrotation
			JOINT RightLeg
			{
				OFFSET 0.018946 -31.938133 0.493100
				CHANNELS 3 Xrotation Yrotation Zrotation
				JOINT RightFoot
				{
					OFFSET -0.018946 -31.938126 -4.336299
					CHANNELS 3 Xrotation Yrotation Zrotation
					JOINT RightToeBase
					{
						OFFSET -0.943001 -26.722004 15.023500
						CHANNELS 3 Xrotation Yrotation Zrotation
						End Site
						{
							OFFSET 0 0 0
						}
					}
				}
			}
		}
	}
	JOINT Hips_virtual
	{
		OFFSET 0.000000 0.000000 0.000000
		CHANNELS 3 Xrotation Yrotation Zrotation
		JOINT Hips
		{
			OFFSET -0.000000 -0.000000 -0.000000
			CHANNELS 3 Xrotation Yrotation Zrotation
			JOINT Spine
			{
				OFFSET 0.000000 10.199997 -0.299500
				CHANNELS 3 Xrotation Yrotation Zrotation
				JOINT Spine1
				{
					OFFSET 0.000000 11.900002 -1.516600
					CHANNELS 3 Xrotation Yrotation Zrotation
					JOINT Spine2
					{
						OFFSET 0.000000 13.600006 -2.842500
						CHANNELS 3 Xrotation Yrotation Zrotation
						JOINT Neck_virtual
						{
							OFFSET 0.000000 0.000000 0.000000
							CHANNELS 3 Xrotation Yrotation Zrotation
							JOINT Neck
							{
								OFFSET 0.000000 9.624100 -2.890100
								CHANNELS 3 Xrotation Yrotation Zrotation
								JOINT Head
								{
									OFFSET 0.000000 14.068802 -1.351900
									CHANNELS 3 Xrotation Yrotation Zrotation
									End Site
									{
										OFFSET 0 0 0
									}
								}
							}
						}
						JOINT LeftShoulder_virtual
						{
							OFFSET 0.000000 0.000000 0.000000
							CHANNELS 3 Xrotation Yrotation Zrotation
							JOINT LeftShoulder
							{
								OFFSET 15.263000 10.923401 -0.547700
								CHANNELS 3 Xrotation Yrotation Zrotation
								JOINT LeftArm
								{
									OFFSET 25.438599 -2.830597 -13.032500
									CHANNELS 3 Xrotation Yrotation Zrotation
									JOINT LeftForeArm
									{
										OFFSET 29.960503 0.000000 0.000000
										CHANNELS 3 Xrotation Yrotation Zrotation
										JOINT LeftHand
										{
											OFFSET 27.849251 0.000000 0.000000
											CHANNELS 3 Xrotation Yrotation Zrotation
											End Site
											{
												OFFSET 0 0 0
											}
										}
									}
								}
							}
						}
						JOINT RightShoulder_virtual
						{
							OFFSET 0.000000 0.000000 0.000000
							CHANNELS 3 Xrotation Yrotation Zrotation
							JOINT RightShoulder
							{
								OFFSET -15.263000 10.923401 -0.547700
								CHANNELS 3 Xrotation Yrotation Zrotation
								JOINT RightArm
								{
									OFFSET -25.438599 -2.830597 -13.032500
									CHANNELS 3 Xrotation Yrotation Zrotation
									JOINT RightForeArm
									{
										OFFSET -29.960503 0.000000 0.000000
										CHANNELS 3 Xrotation Yrotation Zrotation
										JOINT RightHand
										{
											OFFSET -27.849251 0.000000 0.000000
											CHANNELS 3 Xrotation Yrotation Zrotation
											End Site
											{
												OFFSET 0 0 0
											}
										}
									}
								}
							}
						}
					}
				}
			}
		}
	}
}
MOTION
Frames: 8
Frame Time: 0.03333333
53.432938 76.286011 217.465088 0.000000 0.000000 0.000000 0.594497 29.416727 -12.618277 -30.982670 18.395366 -1.582116 73.711162 5.430787 1.768834 21.134029 12.538953 15.387655 0.000000 0.000000 0.000000 -0.775455 31.821704 -13.754030 -51.687586 4.653231 -8.885350 40.338909 7.639255 1.151158 -9.040338 1.739780 21.574361 0.000000 0.000000 0.000000 -1.563532 27.750514 -12.208858 0.901169 -0.760480 -2.561403 5.311265 -7.521000 1.284882 1.442339 -1.703433 2.045933 0.000000 0.000000 0.000000 1.672286 -2.688206 1.568275 0.834211 0.682672 -0.412484 0.000000 0.000000 0.000000 2.807967 -2.954343 1.163969 0.251260 -3.495307 -10.447857 5.702618 -12.736101 -45.176784 14.510078 -84.669866 13.783545 0.000000 0.000000 0.000000 3.384328 -2.208280 1.673625 -0.694493 -4.825634 4.172071 34.461573 12.436214 45.023272 -177.445965 73.556370 179.442907 0.000000 0.000000 0.000000 
58.385883 74.754036 228.229980 0.000000 0.000000 0.000000 -0.925237 29.994656 -13.407551 -52.206749 17.087793 6.228327 88.246365 4.040080 1.630499 16.952823 8.062318 13.801647 0.000000 0.000000 0.000000 -2.845984 32.199332 -14.378351 -46.931965 4.492090 -8.270049 54.724732 9.674878 -0.519534 -20.762884 -1.374654 21.499870 0.000000 0.000000 0.000000 -3.455686 28.259291 -12.604679 0.748482 -0.588497 -2.294086 6.175584 -4.033109 0.837124 2.173730 -0.154573 2.347321 0.000000 0.000000 0.000000 2.388002 -1.248356 1.679713 0.681424 0.444256 -0.560951 0.000000 0.000000 0.000000 3.549803 -1.398674 1.534531 0.457346 -3.432444 -11.136994 15.989109 -17.489128 -49.235364 7.795799 -68.896917 6.392307 0.000000 0.000000 0.000000 3.932030 -0.594288 2.087931 -0.593663 -2.098287 7.153183 21.115147 16.580028 45.308599 -175.704936 76.686850 177.562229 0.000000 0.000000 0.000000 
62.333584 74.117462 236.191223 0.000000 0.000000 0.000000 -2.646816 28.168233 -14.068730 -66.732697 13.699481 9.037571 95.156584 3.834317 2.196918 12.274708 4.941285 15.700276 0.000000 0.000000 0.000000 -4.544195 30.552041 -15.328816 -41.361638 3.772045 -7.519237 63.367626 10.843420 -1.674494 -31.110743 -4.080525 20.122951 0.000000 0.000000 0.000000 -5.255762 27.315012 -13.297204 0.477543 0.018293 -1.649986 7.008474 -0.946037 0.342527 2.954279 0.854849 2.488428 0.000000 0.000000 0.000000 3.280572 -0.167664 1.723489 0.437263 0.278296 -0.512790 0.000000 0.000000 0.000000 4.263337 -0.227612 1.778607 0.502980 -3.492699 -10.763586 25.061830 -20.228450 -51.121941 6.595404 -58.387073 5.195363 0.000000 0.000000 0.000000 4.471771 0.499206 2.255800 -0.536784 -0.422929 9.719007 9.181095 19.302424 45.736494 -175.207521 76.487655 177.037438 0.000000 0.000000 0.000000 
65.187447 74.136612 241.764389 0.000000 0.000000 0.000000 -3.499087 24.644168 -14.885154 -73.442490 11.084650 7.292471 94.897678 5.300862 3.329403 11.725435 4.358186 20.007091 0.000000 0.000000 0.000000 -5.127933 26.992839 -16.603312 -35.600189 2.026230 -6.775641 65.659018 11.590638 -1.625549 -40.077658 -5.999813 16.941248 0.000000 0.000000 0.000000 -5.949347 25.457654 -14.449200 0.363034 0.547223 -1.478339 7.626122 1.272487 0.201260 3.723570 1.278837 2.531151 0.000000 0.000000 0.000000 4.222061 0.402278 1.705809 0.133458 0.182147 -0.291533 0.000000 0.000000 0.000000 4.833753 0.399109 1.844396 0.453807 -3.401964 -10.007625 32.952743 -20.250059 -51.483668 5.817065 -55.360292 4.982982 0.000000 0.000000 0.000000 5.005141 0.943187 2.221448 -0.376717 -0.165882 10.991521 0.749979 21.048582 47.193359 -176.623624 75.140359 178.386988 0.000000 0.000000 0.000000 
66.909019 74.439140 245.139938 0.000000 0.000000 0.000000 -3.059426 21.184962 -15.794575 -75.403157 10.475786 4.306051 91.880907 7.666581 4.673197 13.930636 6.377998 25.332603 0.000000 0.000000 0.000000 -4.360090 23.299505 -17.840075 -31.083979 -0.399359 -6.120571 63.553305 11.927166 -0.242766 -46.736874 -6.627978 12.730817 0.000000 0.000000 0.000000 -4.863995 23.143510 -15.892001 0.626000 0.806146 -1.174607 7.843700 2.429879 0.542398 4.343786 1.231618 2.457478 0.000000 0.000000 0.000000 5.000814 0.478021 1.644841 -0.172570 0.175962 0.047752 0.000000 0.000000 0.000000 5.211555 0.479044 1.712811 0.356807 -3.231518 -9.610616 39.229362 -18.187626 -51.593197 4.957899 -57.814041 4.958927 0.000000 0.000000 0.000000 5.449819 0.835461 2.021534 -0.043033 -0.908732 10.826776 -3.826349 22.749868 50.219342 -179.228904 75.271751 -179.252509 0.000000 0.000000 0.000000 
67.798424 74.343452 246.933167 0.000000 0.000000 0.000000 -1.527326 19.340176 -16.570020 -76.478687 10.795596 2.719125 90.599563 9.899656 5.262425 15.098166 8.678818 29.639053 0.000000 0.000000 0.000000 -2.516020 21.194639 -18.426093 -28.313873 -2.296233 -5.675738 60.097168 12.177257 1.475427 -50.289109 -5.815954 9.290451 0.000000 0.000000 0.000000 -2.507951 21.374773 -16.974116 0.588987 0.816667 -0.956928 7.551749 2.720061 1.150583 4.653442 1.004650 2.346711 0.000000 0.000000 0.000000 5.505389 0.277010 1.584987 -0.420529 0.242364 0.423951 0.000000 0.000000 0.000000 5.366661 0.271015 1.471665 0.275913 -2.738343 -9.722016 43.781929 -15.830377 -52.193611 3.621545 -61.890953 4.381428 0.000000 0.000000 0.000000 5.708332 0.472657 1.745811 0.319713 -1.723079 9.589188 -5.500240 24.617110 54.056173 176.693169 77.870714 -175.541462 0.000000 0.000000 0.000000 
67.961815 73.675102 247.250015 0.000000 0.000000 0.000000 0.550507 19.750052 -17.064623 -78.823504 11.147205 3.631556 93.101223 10.649752 4.701974 12.931870 9.027061 31.799701 0.000000 0.000000 0.000000 -0.175661 21.061303 -18.351692 -27.654580 -2.321332 -5.155233 58.208908 12.720085 2.429401 -50.322529 -3.940781 7.444134 0.000000 0.000000 0.000000 0.252547 20.939027 -17.292516 0.398297 0.562361 -0.730410 7.029188 2.394418 1.703477 4.731699 0.809688 2.267769 0.000000 0.000000 0.000000 5.601169 0.030215 1.573524 -0.579079 0.349459 0.746718 0.000000 0.000000 0.000000 5.184569 0.017746 1.284928 0.175840 -1.883921 -10.335835 46.088679 -14.226569 -53.381070 2.165469 -64.102022 3.318119 0.000000 0.000000 0.000000 5.611779 0.147474 1.528969 0.482134 -1.925139 8.178538 -5.385835 26.544168 56.856130 170.311231 81.619879 -169.520856 0.000000 0.000000 0.000000 
67.609741 72.879486 246.928619 0.000000 0.000000 0.000000 2.543248 21.798060 -17.184913 -82.026050 11.203557 6.537826 98.307732 9.506869 3.682969 7.316829 7.044050 31.912317 0.000000 0.000000 0.000000 2.243085 22.908139 -17.835422 -28.136756 -0.206828 -4.547339 58.646846 13.171108 2.190688 -48.100251 -1.798826 6.728744 0.000000 0.000000 0.000000 2.707343 22.082352 -16.942940 -0.375194 -0.262468 -0.258538 6.560458 1.746736 1.876735 4.630101 0.742327 2.231540 0.000000 0.000000 0.000000 5.351510 -0.056944 1.629949 -0.650826 0.500535 0.949787 0.000000 0.000000 0.000000 4.744459 -0.057891 1.235118 0.046135 -0.839711 -10.747917 46.504781 -13.165615 -55.147702 1.051337 -63.996147 2.181190 0.000000 0.000000 0.000000 5.127595 0.005499 1.424757 0.403721 -1.212484 7.433211 -4.148112 27.588570 57.009099 164.593134 84.010439 -163.842687 0.000000 0.000000 0.000000 
